HIERARCHY
ROOT Hips
{
    OFFSET   0.000000   0.000000   0.000000
    CHANNELS 6 Xposition Yposition Zposition Zrotation Xrotation Yrotation
    JOINT Chest
    {
        OFFSET   0.000000   8.007240   0.000000
        CHANNELS 3 Zrotation Xrotation Yrotation
        JOINT Chest2
        {
            OFFSET   0.000000  22.077100   0.000000
            CHANNELS 3 Zrotation Xrotation Yrotation
            JOINT Neck
            {
                OFFSET   0.000000  23.254800   0.000000
                CHANNELS 3 Zrotation Xrotation Yrotation
                JOINT Head
                {
                    OFFSET   0.000000  14.370000   1.956600
                    CHANNELS 3 Zrotation Xrotation Yrotation
                    End Site
                    {
                        OFFSET   0.000000  19.566000   0.000000
                    }
                }
            }
            JOINT LeftCollar
            {
                OFFSET   3.911900  19.017000  -0.467064
                CHANNELS 3 Zrotation Xrotation Yrotation
                JOINT LeftShoulder
                {
                    OFFSET  10.383700   0.000000   0.000000
                    CHANNELS 3 Zrotation Xrotation Yrotation
                    JOINT LeftElbow
                    {
                        OFFSET  26.662100   0.001476   0.000517
                        CHANNELS 3 Zrotation Xrotation Yrotation
                        JOINT LeftWrist
                        {
                            OFFSET  28.869000  -0.000025  -0.000106
                            CHANNELS 3 Zrotation Xrotation Yrotation
                            JOINT LeftFinger0
                            {
                                OFFSET   2.044660  -2.323460   3.252850
                                CHANNELS 3 Zrotation Xrotation Yrotation
                                JOINT LeftFinger01
                                {
                                    OFFSET   3.088130   0.000000   0.000000
                                    CHANNELS 3 Zrotation Xrotation Yrotation
                                    JOINT LeftFinger02
                                    {
                                        OFFSET   2.639460   0.000000   0.000000
                                        CHANNELS 3 Zrotation Xrotation Yrotation
                                        End Site
                                        {
                                            OFFSET   2.582190   0.000000   0.000000
                                        }
                                    }
                                }
                            }
                            JOINT LeftFinger1
                            {
                                OFFSET   8.364480   0.000000   3.252850
                                CHANNELS 3 Zrotation Xrotation Yrotation
                                JOINT LeftFinger11
                                {
                                    OFFSET   4.646930   0.000000   0.000000
                                    CHANNELS 3 Zrotation Xrotation Yrotation
                                    JOINT LeftFinger12
                                    {
                                        OFFSET   2.323460   0.000000   0.000000
                                        CHANNELS 3 Zrotation Xrotation Yrotation
                                        End Site
                                        {
                                            OFFSET   2.273050   0.000000   0.000000
                                        }
                                    }
                                }
                            }
                            JOINT LeftFinger2
                            {
                                OFFSET   8.364490   0.000015   1.078090
                                CHANNELS 3 Zrotation Xrotation Yrotation
                                JOINT LeftFinger21
                                {
                                    OFFSET   5.111620   0.000000   0.000000
                                    CHANNELS 3 Zrotation Xrotation Yrotation
                                    JOINT LeftFinger22
                                    {
                                        OFFSET   2.788160   0.000016   0.000000
                                        CHANNELS 3 Zrotation Xrotation Yrotation
                                        End Site
                                        {
                                            OFFSET   2.727660   0.000000   0.000000
                                        }
                                    }
                                }
                            }
                            JOINT LeftFinger3
                            {
                                OFFSET   7.899780   0.000017  -1.078090
                                CHANNELS 3 Zrotation Xrotation Yrotation
                                JOINT LeftFinger31
                                {
                                    OFFSET   4.646930   0.000000   0.000000
                                    CHANNELS 3 Zrotation Xrotation Yrotation
                                    JOINT LeftFinger32
                                    {
                                        OFFSET   2.323470   0.000000   0.000000
                                        CHANNELS 3 Zrotation Xrotation Yrotation
                                        End Site
                                        {
                                            OFFSET   2.273050   0.000000   0.000000
                                        }
                                    }
                                }
                            }
                            JOINT LeftFinger4
                            {
                                OFFSET   7.435090   0.000000  -3.252850
                                CHANNELS 3 Zrotation Xrotation Yrotation
                                JOINT LeftFinger41
                                {
                                    OFFSET   3.717550   0.000000   0.000000
                                    CHANNELS 3 Zrotation Xrotation Yrotation
                                    JOINT LeftFinger42
                                    {
                                        OFFSET   1.858770   0.000000   0.000000
                                        CHANNELS 3 Zrotation Xrotation Yrotation
                                        End Site
                                        {
                                            OFFSET   1.818440   0.000000   0.000000
                                        }
                                    }
                                }
                            }
                        }
                    }
                }
            }
            JOINT RightCollar
            {
                OFFSET  -3.911900  19.017000  -0.467063
                CHANNELS 3 Zrotation Xrotation Yrotation
                JOINT RightShoulder
                {
                    OFFSET -10.383700   0.000019   0.000000
                    CHANNELS 3 Zrotation Xrotation Yrotation
                    JOINT RightElbow
                    {
                        OFFSET -26.662100   0.001175   0.000102
                        CHANNELS 3 Zrotation Xrotation Yrotation
                        JOINT RightWrist
                        {
                            OFFSET -28.869000   0.000016  -0.000079
                            CHANNELS 3 Zrotation Xrotation Yrotation
                            JOINT RightFinger0
                            {
                                OFFSET  -2.044660  -2.323490   3.252850
                                CHANNELS 3 Zrotation Xrotation Yrotation
                                JOINT RightFinger01
                                {
                                    OFFSET  -3.088140   0.000000   0.000000
                                    CHANNELS 3 Zrotation Xrotation Yrotation
                                    JOINT RightFinger02
                                    {
                                        OFFSET  -2.639460   0.000000   0.000000
                                        CHANNELS 3 Zrotation Xrotation Yrotation
                                        End Site
                                        {
                                            OFFSET  -2.582190   0.000000   0.000000
                                        }
                                    }
                                }
                            }
                            JOINT RightFinger1
                            {
                                OFFSET  -8.364480   0.000000   3.252850
                                CHANNELS 3 Zrotation Xrotation Yrotation
                                JOINT RightFinger11
                                {
                                    OFFSET  -4.646930   0.000000   0.000000
                                    CHANNELS 3 Zrotation Xrotation Yrotation
                                    JOINT RightFinger12
                                    {
                                        OFFSET  -2.323470   0.000000   0.000000
                                        CHANNELS 3 Zrotation Xrotation Yrotation
                                        End Site
                                        {
                                            OFFSET  -2.273050   0.000000   0.000000
                                        }
                                    }
                                }
                            }
                            JOINT RightFinger2
                            {
                                OFFSET  -8.364480   0.000000   1.078090
                                CHANNELS 3 Zrotation Xrotation Yrotation
                                JOINT RightFinger21
                                {
                                    OFFSET  -5.111620   0.000000   0.000000
                                    CHANNELS 3 Zrotation Xrotation Yrotation
                                    JOINT RightFinger22
                                    {
                                        OFFSET  -2.788160   0.000000   0.000000
                                        CHANNELS 3 Zrotation Xrotation Yrotation
                                        End Site
                                        {
                                            OFFSET  -2.727660   0.000000   0.000000
                                        }
                                    }
                                }
                            }
                            JOINT RightFinger3
                            {
                                OFFSET  -7.899780   0.000000  -1.078090
                                CHANNELS 3 Zrotation Xrotation Yrotation
                                JOINT RightFinger31
                                {
                                    OFFSET  -4.646930   0.000000   0.000000
                                    CHANNELS 3 Zrotation Xrotation Yrotation
                                    JOINT RightFinger32
                                    {
                                        OFFSET  -2.323470   0.000000   0.000000
                                        CHANNELS 3 Zrotation Xrotation Yrotation
                                        End Site
                                        {
                                            OFFSET  -2.273050   0.000000   0.000000
                                        }
                                    }
                                }
                            }
                            JOINT RightFinger4
                            {
                                OFFSET  -7.435090   0.000000  -3.252850
                                CHANNELS 3 Zrotation Xrotation Yrotation
                                JOINT RightFinger41
                                {
                                    OFFSET  -3.717550   0.000000   0.000000
                                    CHANNELS 3 Zrotation Xrotation Yrotation
                                    JOINT RightFinger42
                                    {
                                        OFFSET  -1.858770   0.000000   0.000000
                                        CHANNELS 3 Zrotation Xrotation Yrotation
                                        End Site
                                        {
                                            OFFSET  -1.818440   0.000000   0.000000
                                        }
                                    }
                                }
                            }
                        }
                    }
                }
            }
        }
    }
    JOINT LeftHip
    {
        OFFSET   9.783040   0.000000   0.000000
        CHANNELS 3 Zrotation Xrotation Yrotation
        JOINT LeftKnee
        {
            OFFSET   0.000032 -41.789100  -0.002222
            CHANNELS 3 Zrotation Xrotation Yrotation
            JOINT LeftAnkle
            {
                OFFSET   0.000087 -41.133200  -0.000135
                CHANNELS 3 Zrotation Xrotation Yrotation
                JOINT LeftToe
                {
                    OFFSET   0.000000  -6.358960  14.674500
                    CHANNELS 3 Zrotation Xrotation Yrotation
                    End Site
                    {
                        OFFSET   0.000000   0.000000   3.913200
                    }
                }
            }
        }
    }
    JOINT RightHip
    {
        OFFSET  -9.783040   0.000000   0.000000
        CHANNELS 3 Zrotation Xrotation Yrotation
        JOINT RightKnee
        {
            OFFSET   0.000047 -41.789100  -0.000896
            CHANNELS 3 Zrotation Xrotation Yrotation
            JOINT RightAnkle
            {
                OFFSET  -0.000117 -41.133300  -0.000248
                CHANNELS 3 Zrotation Xrotation Yrotation
                JOINT RightToe
                {
                    OFFSET   0.000000  -6.358970  14.674500
                    CHANNELS 3 Zrotation Xrotation Yrotation
                    End Site
                    {
                        OFFSET   0.000000   0.000000   3.913200
                    }
                }
            }
        }
    }
}
MOTION
Frames: 6
Frame Time:   0.016667
  0.790848  89.009900  -0.657109 -11.559000 -11.230500 -31.775300   3.836980  11.538200  -6.215420   9.232030  22.545300 -13.632600  -1.062240  -4.433110  -0.082085  -1.774650  -8.980250  -1.713290  -5.241460  -5.857260  -9.579130 -43.486200  32.520400 -91.177000   2.774460 -23.019800 -13.586300   3.927800 -38.866900  -3.247500  39.773500  26.178400 -61.963700 -23.323300   0.000664   0.000790  -6.661640  -0.002541  -0.005091 -30.018000   6.383830 -10.896400 -25.057800   0.003245   0.004953 -17.540400  -0.003732   0.004321 -27.938600   2.440660  -4.590770 -32.236400   0.002654  -0.003769 -21.469400   0.002090  -0.002198 -28.269900  -4.278300   7.898470 -36.907300   0.002340  -0.002046 -24.580300   0.001609   0.001243 -34.285100  -6.656690   9.651900 -52.271800   0.001384   0.000714 -34.813000   0.001877   0.006192   4.877540 -11.345800   6.865550  45.727200  -0.044045  60.504900 -10.429200  -7.489490  12.923300 -28.166900 -62.357800  10.804500 -52.006800  36.065800  71.264100   7.395670  -0.008644  -0.006129  -1.302170  -0.002490  -0.003122  28.859700   7.957000  14.100500  24.419100  -0.001602  -0.001115  17.093400   0.002236  -0.002138  26.860300   5.721900  11.131700  28.810700  -0.000770   0.001535  19.188000   0.002039  -0.000436  25.910400   4.948600  10.077900  26.346700  -0.002230   0.000714  17.546900  -0.002712   0.000989  24.530500   1.972110   4.318680  36.907100   0.005832   0.001135  24.580100  -0.000053  -0.000233   4.287010  22.039900   8.129330   0.509405   1.957580  26.142400  -5.993330  -7.441820   9.081080  -0.000000   0.000000  -0.000000   2.773110   9.596320  -1.345890  -0.268752   6.922080   5.738630   1.066080  -1.732220  17.704000   0.000000   0.000000  -0.000000
  0.753024  89.016800  -0.689305 -11.623000 -11.189600 -31.956400   3.805050  11.532700  -6.153150   9.152720  22.544000 -13.497200  -1.098010  -4.505920  -0.086232  -1.835380  -9.127280  -1.345610  -5.161980  -5.768070  -9.417470 -43.484600  32.684300 -91.488600   2.796710 -23.017500 -13.571200   3.928380 -39.075800  -3.275940  39.819900  26.153200 -61.887800 -23.256100   0.000698   0.000787  -6.628030  -0.002544  -0.005091 -29.960900   6.371440 -10.896800 -25.011000   0.003251   0.004952 -17.507700  -0.003735   0.004317 -27.932000   2.438840  -4.588670 -32.194900   0.002663  -0.003773 -21.441800   0.002091  -0.002247 -28.263000  -4.306840   7.952270 -36.883700   0.002344  -0.002008 -24.564600   0.001613   0.001249 -34.229000  -6.678040   9.699560 -52.194900   0.001382   0.000651 -34.761800   0.001939   0.006192   4.840080 -11.235000   6.810100  45.962700   0.181297  61.039900 -10.400800  -7.559770  12.814800 -28.198800 -62.387600  10.836400 -52.125500  36.238000  71.582900   7.415730  -0.008575  -0.006022  -1.292150  -0.002496  -0.003117  28.863900   7.956390  14.096800  24.422100  -0.001627  -0.001116  17.095500   0.002246  -0.002139  26.860400   5.722900  11.130700  28.811500  -0.000646   0.001483  19.188500   0.001961  -0.000423  25.902200   4.948380  10.081100  26.338700  -0.002336   0.000702  17.541500  -0.002777   0.001016  24.512500   1.973420   4.325950  36.880400   0.005848   0.001149  24.562300  -0.000109  -0.000172   4.339900  22.044400   8.104270   0.506191   2.007510  26.247900  -6.012970  -7.474880   9.163240   0.000000   0.000000  -0.000000   2.807620   9.602660  -1.376430  -0.234507   6.873090   5.774420   1.102770  -1.698660  17.881300  -0.000000   0.000000   0.000000
  0.719214  89.024600  -0.724865 -11.676300 -11.162000 -32.095400   3.770590  11.527700  -6.099470   9.070120  22.543300 -13.379000  -1.135040  -4.567280  -0.090916  -1.897850  -9.250820  -0.981304  -5.047810  -5.685820  -9.232280 -43.498600  32.856500 -91.814000   2.825580 -23.025300 -13.534500   3.876420 -39.339400  -3.339330  39.835800  26.177600 -61.865500 -23.221500   0.000707   0.000790  -6.610740  -0.002538  -0.005093 -29.909800   6.383350 -10.934200 -24.971500   0.003255   0.004955 -17.480000  -0.003729   0.004320 -27.926500   2.439080  -4.589220 -32.176300   0.002671  -0.003787 -21.429400   0.002090  -0.002296 -28.255700  -4.339000   8.012960 -36.858400   0.002339  -0.001979 -24.547700   0.001614   0.001252 -34.197200  -6.717850   9.767400 -52.158200   0.001384   0.000587 -34.737400   0.001999   0.006191   4.822600 -11.156300   6.763900  46.115100   0.373597  61.475500 -10.344900  -7.644800  12.701800 -28.208300 -62.259300  10.872100 -52.209100  36.323600  71.719600   7.395580  -0.008508  -0.005905  -1.302230  -0.002494  -0.003118  28.864500   7.954620  14.092300  24.421800  -0.001658  -0.001116  17.095300   0.002252  -0.002139  26.857900   5.723860  11.134400  28.802300  -0.000538   0.001432  19.182300   0.001876  -0.000399  25.896000   4.948200  10.083300  26.332500  -0.002436   0.000679  17.537300  -0.002836   0.001052  24.541100   1.972150   4.314250  36.923000   0.005863   0.001152  24.590700  -0.000165  -0.000083   4.395740  22.052500   8.076470   0.499870   2.043660  26.341000  -6.035830  -7.493140   9.215450  -0.000000   0.000000  -0.000000   2.850790   9.599660  -1.395940  -0.213588   6.839890   5.809720   1.103310  -1.664100  17.995100   0.000000   0.000000  -0.000000
  0.688849  89.033300  -0.762964 -11.714200 -11.150600 -32.158400   3.733930  11.523300  -6.053790   8.984730  22.543100 -13.276900  -1.165790  -4.619740  -0.093910  -1.949970  -9.356430  -0.618805  -4.925590  -5.613870  -9.049680 -43.505000  33.027400 -92.139300   2.861330 -23.051300 -13.482500   3.814140 -39.598900  -3.418370  39.899900  26.221400 -61.880600 -23.197900   0.000719   0.000794  -6.598910  -0.002533  -0.005095 -29.860000   6.401780 -10.990900 -24.935200   0.003257   0.004957 -17.454600  -0.003722   0.004324 -27.922000   2.440780  -4.593060 -32.167100   0.002674  -0.003803 -21.423300   0.002090  -0.002344 -28.249700  -4.368980   8.069380 -36.843800   0.002335  -0.001949 -24.538000   0.001614   0.001253 -34.173000  -6.760820   9.837190 -52.133600   0.001388   0.000526 -34.721000   0.002059   0.006189   4.812990 -11.095800   6.722090  46.222600   0.519917  61.829500 -10.285800  -7.692660  12.580100 -28.258900 -62.034400  10.847100 -52.265200  36.371300  71.785900   7.350070  -0.008439  -0.005787  -1.324990  -0.002489  -0.003118  28.862900   7.949500  14.085800  24.419800  -0.001687  -0.001116  17.093900   0.002257  -0.002138  26.850700   5.724830  11.142100  28.771800  -0.000429   0.001381  19.162000   0.001793  -0.000372  25.892600   4.948050  10.084500  26.329100  -0.002538   0.000654  17.535100  -0.002894   0.001086  24.597500   1.968580   4.291160  37.006900   0.005877   0.001155  24.646600  -0.000222  -0.000000   4.453490  22.067700   8.052810   0.495628   2.059880  26.388100  -6.060800  -7.498740   9.234930  -0.000000   0.000000  -0.000000   2.899660   9.593750  -1.411010  -0.201618   6.826350   5.838850   1.095690  -1.632910  18.038300  -0.000000   0.000000   0.000000
  0.659611  89.042100  -0.802785 -11.739900 -11.155100 -32.154700   3.693920  11.519600  -6.017340   8.894470  22.543900 -13.193300  -1.182120  -4.663680  -0.094243  -1.976410  -9.445130  -0.256017  -4.817470  -5.555140  -8.897680 -43.474400  33.184600 -92.457300   2.900510 -23.120800 -13.411800   3.734210 -39.795200  -3.509450  39.966800  26.316100 -61.968800 -23.167800   0.000760   0.000795  -6.583890  -0.002538  -0.005095 -29.820500   6.415850 -11.035700 -24.906100   0.003247   0.004954 -17.434200  -0.003721   0.004323 -27.917000   2.457020  -4.624080 -32.162100   0.002669  -0.003819 -21.420000   0.002089  -0.002397 -28.248600  -4.388860   8.106080 -36.860700   0.002336  -0.001909 -24.549300   0.001617   0.001244 -34.147400  -6.795210   9.892100 -52.104700   0.001389   0.000474 -34.701800   0.002116   0.006197   4.813570 -11.041400   6.675620  46.313300   0.609908  62.109000 -10.240800  -7.652250  12.459200 -28.430300 -61.829700  10.669800 -52.305100  36.412500  71.858000   7.268800  -0.008360  -0.005680  -1.365610  -0.002480  -0.003123  28.857800   7.944500  14.081200  24.415000  -0.001699  -0.001119  17.090500   0.002263  -0.002138  26.838700   5.725750  11.151400  28.717500  -0.000296   0.001325  19.125800   0.001717  -0.000345  25.893500   4.947930  10.084200  26.329900  -0.002652   0.000642  17.535700  -0.002957   0.001108  24.664300   1.962220   4.263870  37.106100   0.005886   0.001171  24.712600  -0.000281   0.000040   4.512430  22.098900   8.041460   0.496443   2.046400  26.377900  -6.086930  -7.490510   9.232240   0.000000   0.000000   0.000000   2.955670   9.584940  -1.424490  -0.196575   6.827470   5.851900   1.061330  -1.608430  18.024400  -0.000000   0.000000   0.000000
  0.632914  89.051100  -0.843020 -11.762000 -11.169300 -32.126900   3.652210  11.516500  -5.987000   8.802060  22.545600 -13.122000  -1.187370  -4.703170  -0.094335  -1.988090  -9.525080   0.113822  -4.718480  -5.506770  -8.767510 -43.443200  33.341300 -92.754200   2.957530 -23.174100 -13.331600   3.660710 -39.965500  -3.591910  40.011300  26.408700 -62.055800 -23.140100   0.000806   0.000795  -6.570040  -0.002543  -0.005094 -29.783700   6.423430 -11.060100 -24.878100   0.003237   0.004950 -17.414600  -0.003720   0.004322 -27.912000   2.479870  -4.667500 -32.149900   0.002660  -0.003835 -21.411800   0.002088  -0.002449 -28.247500  -4.403180   8.132430 -36.877600   0.002338  -0.001868 -24.560500   0.001619   0.001235 -34.113700  -6.814790   9.935860 -52.060200   0.001390   0.000420 -34.672100   0.002173   0.006205   4.821590 -10.996400   6.630130  46.418600   0.647266  62.320600 -10.202000  -7.592960  12.347100 -28.655200 -61.609100  10.411800 -52.319200  36.433200  71.889000   7.212890  -0.008283  -0.005572  -1.393550  -0.002473  -0.003127  28.828800   7.925120  14.065200  24.388300  -0.001711  -0.001121  17.071800   0.002272  -0.002138  26.821900   5.726620  11.163700  28.641300  -0.000159   0.001265  19.075100   0.001644  -0.000321  25.894300   4.947810  10.083800  26.330700  -0.002764   0.000628  17.536300  -0.003019   0.001129  24.735200   1.954990   4.234930  37.211200   0.005896   0.001182  24.782600  -0.000338   0.000071   4.571940  22.137300   8.036330   0.499428   2.015450  26.351900  -6.110970  -7.468370   9.214170   0.000000   0.000000   0.000000   3.011370   9.579060  -1.433600  -0.193721   6.831830   5.854880   1.010000  -1.590160  17.982700   0.000000   0.000000   0.000000
